<svg width="15" height="15" viewBox="0 0 15 15" fill="none" xmlns="http://www.w3.org/2000/svg">
<path d="M7.83984 14.6899C11.7058 14.6899 14.8398 11.5559 14.8398 7.68994C14.8398 3.82395 11.7058 0.689941 7.83984 0.689941C3.97385 0.689941 0.839844 3.82395 0.839844 7.68994C0.839844 11.5559 3.97385 14.6899 7.83984 14.6899Z" fill="#B5B4B6"/>
<path fill-rule="evenodd" clip-rule="evenodd" d="M11.1618 7.03293C11.1769 7.08826 11.1768 7.14662 11.1615 7.20188C11.1461 7.25714 11.1162 7.30724 11.0748 7.34693L8.07484 10.2609C8.01172 10.3225 7.92703 10.357 7.83884 10.357C7.75066 10.357 7.66597 10.3225 7.60284 10.2609L4.60284 7.34693C4.57187 7.31717 4.54723 7.28145 4.5304 7.24193C4.51357 7.20241 4.50489 7.15989 4.50489 7.11693C4.50489 7.07398 4.51357 7.03146 4.5304 6.99194C4.54723 6.95242 4.57187 6.9167 4.60284 6.88693C4.66606 6.82476 4.75118 6.78992 4.83984 6.78992C4.92851 6.78992 5.01363 6.82476 5.07684 6.88693L7.50684 9.24993V2.63893C7.50684 2.48293 7.65484 2.35693 7.83884 2.35693C8.02284 2.35693 8.17284 2.48293 8.17284 2.63893V9.24893L10.6028 6.88793C10.6362 6.85577 10.6757 6.83075 10.719 6.81442C10.7624 6.79808 10.8086 6.79077 10.8548 6.79293L10.9248 6.80293C10.9811 6.81707 11.0326 6.84578 11.0742 6.88615C11.1158 6.92653 11.146 6.97716 11.1618 7.03293ZM11.5318 11.3569H4.14784C3.97784 11.3569 3.83984 11.2069 3.83984 11.0229C3.83984 10.8389 3.97784 10.6899 4.14784 10.6899H11.5318C11.7018 10.6899 11.8398 10.8399 11.8398 11.0229C11.8398 11.2069 11.7018 11.3569 11.5318 11.3569Z" fill="white"/>
</svg>
