<svg width="15" height="15" viewBox="0 0 15 15" fill="none" xmlns="http://www.w3.org/2000/svg">
<path d="M7.87988 14.6899C11.7459 14.6899 14.8799 11.5559 14.8799 7.68994C14.8799 3.82395 11.7459 0.689941 7.87988 0.689941C4.01389 0.689941 0.879883 3.82395 0.879883 7.68994C0.879883 11.5559 4.01389 14.6899 7.87988 14.6899Z" fill="#B5B4B6"/>
<path fill-rule="evenodd" clip-rule="evenodd" d="M11.2019 7.03293C11.2169 7.08826 11.2168 7.14662 11.2015 7.20188C11.1862 7.25714 11.1563 7.30724 11.1149 7.34693L8.11488 10.2609C8.05176 10.3225 7.96706 10.357 7.87888 10.357C7.7907 10.357 7.70601 10.3225 7.64288 10.2609L4.64288 7.34693C4.61191 7.31717 4.58727 7.28145 4.57044 7.24193C4.5536 7.20241 4.54493 7.15989 4.54493 7.11693C4.54493 7.07398 4.5536 7.03146 4.57044 6.99194C4.58727 6.95242 4.61191 6.9167 4.64288 6.88693C4.7061 6.82476 4.79122 6.78992 4.87988 6.78992C4.96855 6.78992 5.05367 6.82476 5.11688 6.88693L7.54688 9.24993V2.63893C7.54688 2.48293 7.69488 2.35693 7.87888 2.35693C8.06288 2.35693 8.21288 2.48293 8.21288 2.63893V9.24893L10.6429 6.88793C10.6762 6.85577 10.7157 6.83075 10.7591 6.81442C10.8024 6.79808 10.8486 6.79077 10.8949 6.79293L10.9649 6.80293C11.0211 6.81707 11.0726 6.84578 11.1142 6.88615C11.1558 6.92653 11.1861 6.97716 11.2019 7.03293ZM11.5719 11.3569H4.18788C4.01788 11.3569 3.87988 11.2069 3.87988 11.0229C3.87988 10.8389 4.01788 10.6899 4.18788 10.6899H11.5719C11.7419 10.6899 11.8799 10.8399 11.8799 11.0229C11.8799 11.2069 11.7419 11.3569 11.5719 11.3569Z" fill="white"/>
</svg>
