<svg width="15" height="15" viewBox="0 0 15 15" fill="none" xmlns="http://www.w3.org/2000/svg">
<path d="M7.83008 14.6899C11.6961 14.6899 14.8301 11.5559 14.8301 7.68994C14.8301 3.82395 11.6961 0.689941 7.83008 0.689941C3.96408 0.689941 0.830078 3.82395 0.830078 7.68994C0.830078 11.5559 3.96408 14.6899 7.83008 14.6899Z" fill="#B5B4B6"/>
<path fill-rule="evenodd" clip-rule="evenodd" d="M11.1521 7.03293C11.1671 7.08826 11.167 7.14662 11.1517 7.20188C11.1364 7.25714 11.1065 7.30724 11.0651 7.34693L8.06508 10.2609C8.00195 10.3225 7.91726 10.357 7.82908 10.357C7.7409 10.357 7.65621 10.3225 7.59308 10.2609L4.59308 7.34693C4.56211 7.31717 4.53746 7.28145 4.52063 7.24193C4.5038 7.20241 4.49512 7.15989 4.49512 7.11693C4.49512 7.07398 4.5038 7.03146 4.52063 6.99194C4.53746 6.95242 4.56211 6.9167 4.59308 6.88693C4.6563 6.82476 4.74141 6.78992 4.83008 6.78992C4.91874 6.78992 5.00386 6.82476 5.06708 6.88693L7.49708 9.24993V2.63893C7.49708 2.48293 7.64508 2.35693 7.82908 2.35693C8.01308 2.35693 8.16308 2.48293 8.16308 2.63893V9.24893L10.5931 6.88793C10.6264 6.85577 10.6659 6.83075 10.7093 6.81442C10.7526 6.79808 10.7988 6.79077 10.8451 6.79293L10.9151 6.80293C10.9713 6.81707 11.0228 6.84578 11.0644 6.88615C11.106 6.92653 11.1363 6.97716 11.1521 7.03293ZM11.5221 11.3569H4.13808C3.96808 11.3569 3.83008 11.2069 3.83008 11.0229C3.83008 10.8389 3.96808 10.6899 4.13808 10.6899H11.5221C11.6921 10.6899 11.8301 10.8399 11.8301 11.0229C11.8301 11.2069 11.6921 11.3569 11.5221 11.3569Z" fill="white"/>
</svg>
