<svg width="15" height="15" viewBox="0 0 15 15" fill="none" xmlns="http://www.w3.org/2000/svg">
<path d="M7.65991 14.6899C11.5259 14.6899 14.6599 11.5559 14.6599 7.68994C14.6599 3.82395 11.5259 0.689941 7.65991 0.689941C3.79392 0.689941 0.659912 3.82395 0.659912 7.68994C0.659912 11.5559 3.79392 14.6899 7.65991 14.6899Z" fill="#B5B4B6"/>
<path fill-rule="evenodd" clip-rule="evenodd" d="M10.9819 7.03293C10.997 7.08826 10.9968 7.14662 10.9815 7.20188C10.9662 7.25714 10.9363 7.30724 10.8949 7.34693L7.89491 10.2609C7.83178 10.3225 7.74709 10.357 7.65891 10.357C7.57073 10.357 7.48604 10.3225 7.42291 10.2609L4.42291 7.34693C4.39194 7.31717 4.3673 7.28145 4.35047 7.24193C4.33363 7.20241 4.32496 7.15989 4.32496 7.11693C4.32496 7.07398 4.33363 7.03146 4.35047 6.99194C4.3673 6.95242 4.39194 6.9167 4.42291 6.88693C4.48613 6.82476 4.57125 6.78992 4.65991 6.78992C4.74858 6.78992 4.83369 6.82476 4.89691 6.88693L7.32691 9.24993V2.63893C7.32691 2.48293 7.47491 2.35693 7.65891 2.35693C7.84291 2.35693 7.99291 2.48293 7.99291 2.63893V9.24893L10.4229 6.88793C10.4562 6.85577 10.4958 6.83075 10.5391 6.81442C10.5824 6.79808 10.6287 6.79077 10.6749 6.79293L10.7449 6.80293C10.8011 6.81707 10.8526 6.84578 10.8943 6.88615C10.9359 6.92653 10.9661 6.97716 10.9819 7.03293ZM11.3519 11.3569H3.96791C3.79791 11.3569 3.65991 11.2069 3.65991 11.0229C3.65991 10.8389 3.79791 10.6899 3.96791 10.6899H11.3519C11.5219 10.6899 11.6599 10.8399 11.6599 11.0229C11.6599 11.2069 11.5219 11.3569 11.3519 11.3569Z" fill="white"/>
</svg>
