<svg width="15" height="15" viewBox="0 0 15 15" fill="none" xmlns="http://www.w3.org/2000/svg">
<path d="M7.5498 14.6899C11.4158 14.6899 14.5498 11.5559 14.5498 7.68994C14.5498 3.82395 11.4158 0.689941 7.5498 0.689941C3.68381 0.689941 0.549805 3.82395 0.549805 7.68994C0.549805 11.5559 3.68381 14.6899 7.5498 14.6899Z" fill="#B5B4B6"/>
<path fill-rule="evenodd" clip-rule="evenodd" d="M10.8718 7.03293C10.8869 7.08826 10.8867 7.14662 10.8714 7.20188C10.8561 7.25714 10.8262 7.30724 10.7848 7.34693L7.7848 10.2609C7.72168 10.3225 7.63699 10.357 7.5488 10.357C7.46062 10.357 7.37593 10.3225 7.3128 10.2609L4.3128 7.34693C4.28183 7.31717 4.25719 7.28145 4.24036 7.24193C4.22353 7.20241 4.21485 7.15989 4.21485 7.11693C4.21485 7.07398 4.22353 7.03146 4.24036 6.99194C4.25719 6.95242 4.28183 6.9167 4.3128 6.88693C4.37602 6.82476 4.46114 6.78992 4.5498 6.78992C4.63847 6.78992 4.72359 6.82476 4.7868 6.88693L7.2168 9.24993V2.63893C7.2168 2.48293 7.3648 2.35693 7.5488 2.35693C7.7328 2.35693 7.8828 2.48293 7.8828 2.63893V9.24893L10.3128 6.88793C10.3461 6.85577 10.3857 6.83075 10.429 6.81442C10.4723 6.79808 10.5185 6.79077 10.5648 6.79293L10.6348 6.80293C10.691 6.81707 10.7425 6.84578 10.7841 6.88615C10.8258 6.92653 10.856 6.97716 10.8718 7.03293ZM11.2418 11.3569H3.8578C3.6878 11.3569 3.5498 11.2069 3.5498 11.0229C3.5498 10.8389 3.6878 10.6899 3.8578 10.6899H11.2418C11.4118 10.6899 11.5498 10.8399 11.5498 11.0229C11.5498 11.2069 11.4118 11.3569 11.2418 11.3569Z" fill="white"/>
</svg>
